# xmcd CD database file
#
# Track frame offsets:
#	150
#	18665
#	35198
#	47637
#	62953
#	78959
#	94338
#	120174
#	137065
#	156043
#	177574
#
# Disc length: 2624 seconds
#
# Revision: 0
# Processed by: cddbd v1.5.1PL2 Copyright (c) Steve Scherf et al.
# Submitted via: CDex 1.51
#
DISCID=930a3e0b
DTITLE=Jon Nicholson - A Lil Sump'm Sump'm
DYEAR=2005
DGENRE=Country
TTITLE0=Just A Man
TTITLE1=Love Is Alright
TTITLE2=Rock and Roll
TTITLE3=Grass River
TTITLE4=7 Days
TTITLE5=Take Me Back
TTITLE6=Hero
TTITLE7=Stereo
TTITLE8=How Would I Know 
TTITLE9=Nothing
TTITLE10=Grandma
EXTD=YEAR: 2005
EXTT0=
EXTT1=
EXTT2=
EXTT3=
EXTT4=
EXTT5=
EXTT6=
EXTT7=
EXTT8=
EXTT9=
EXTT10=
PLAYORDER=
